<svg xmlns="http://www.w3.org/2000/svg" width="1200" height="560" viewBox="0 0 1200 560">
<defs><linearGradient id="bg" x1="0" y1="0" x2="1" y2="1"><stop offset="0" stop-color="#0b1220"/><stop offset="1" stop-color="#15243a"/></linearGradient><linearGradient id="accent" x1="0" y1="0" x2="1" y2="0"><stop offset="0" stop-color="#36c5f0"/><stop offset="1" stop-color="#5eead4"/></linearGradient></defs>
<rect width="1200" height="560" rx="24" fill="url(#bg)"/>
<text x="44" y="52" fill="#f8fafc" font-family="Arial,sans-serif" font-size="26" font-weight="700">BANKING TRANSACTION MONITORING</text>
<text x="44" y="80" fill="#9fb2ca" font-family="Arial,sans-serif" font-size="15">Executive overview • Synthetic portfolio data • Power BI</text>
<rect x="44" y="108" width="250" height="96" rx="14" fill="#1d3048" stroke="#314a65"/><rect x="312" y="108" width="250" height="96" rx="14" fill="#1d3048" stroke="#314a65"/><rect x="580" y="108" width="250" height="96" rx="14" fill="#1d3048" stroke="#314a65"/><rect x="848" y="108" width="308" height="96" rx="14" fill="#1d3048" stroke="#314a65"/>
<g font-family="Arial,sans-serif"><text x="64" y="139" fill="#a9bdd3" font-size="14">TRANSACTIONS</text><text x="64" y="178" fill="#ffffff" font-size="32" font-weight="700">10,000</text><text x="332" y="139" fill="#a9bdd3" font-size="14">CUSTOMERS</text><text x="332" y="178" fill="#ffffff" font-size="32" font-weight="700">500</text><text x="600" y="139" fill="#a9bdd3" font-size="14">ANALYTICS STACK</text><text x="600" y="178" fill="#ffffff" font-size="24" font-weight="700">SQL · Python</text><text x="868" y="139" fill="#a9bdd3" font-size="14">REPORTING</text><text x="868" y="178" fill="#ffffff" font-size="24" font-weight="700">Power BI Dashboard</text></g>
<rect x="44" y="226" width="700" height="286" rx="16" fill="#111e30" stroke="#314a65"/><rect x="764" y="226" width="392" height="286" rx="16" fill="#111e30" stroke="#314a65"/>
<text x="68" y="260" fill="#eaf2fa" font-family="Arial,sans-serif" font-size="18" font-weight="700">Monthly transaction trend (illustrative preview)</text>
<g stroke="#273b52" stroke-width="1"><line x1="82" y1="302" x2="710" y2="302"/><line x1="82" y1="352" x2="710" y2="352"/><line x1="82" y1="402" x2="710" y2="402"/><line x1="82" y1="452" x2="710" y2="452"/></g>
<polyline points="92,430 165,406 238,420 311,365 384,378 457,330 530,344 603,292 690,314" fill="none" stroke="url(#accent)" stroke-width="5" stroke-linecap="round" stroke-linejoin="round"/>
<g fill="#5eead4"><circle cx="92" cy="430" r="5"/><circle cx="165" cy="406" r="5"/><circle cx="238" cy="420" r="5"/><circle cx="311" cy="365" r="5"/><circle cx="384" cy="378" r="5"/><circle cx="457" cy="330" r="5"/><circle cx="530" cy="344" r="5"/><circle cx="603" cy="292" r="5"/><circle cx="690" cy="314" r="5"/></g>
<text x="788" y="260" fill="#eaf2fa" font-family="Arial,sans-serif" font-size="18" font-weight="700">Monitoring areas</text>
<g font-family="Arial,sans-serif" font-size="16"><rect x="790" y="286" width="10" height="10" rx="3" fill="#5eead4"/><text x="814" y="296" fill="#d8e5f2">Monthly trends</text><rect x="790" y="326" width="10" height="10" rx="3" fill="#60a5fa"/><text x="814" y="336" fill="#d8e5f2">Channel performance</text><rect x="790" y="366" width="10" height="10" rx="3" fill="#fbbf24"/><text x="814" y="376" fill="#d8e5f2">Transaction statuses</text><rect x="790" y="406" width="10" height="10" rx="3" fill="#f87171"/><text x="814" y="416" fill="#d8e5f2">Rule-based risk flags</text></g>
<text x="790" y="470" fill="#8da5bf" font-family="Arial,sans-serif" font-size="12">Conceptual preview — not live Power BI output</text>
</svg>